HIERARCHY
ROOT Hips
{
	OFFSET 0.000000 0.000000 0.000000
	CHANNELS 6 Xposition Yposition Zposition Zrotation Yrotation Xrotation 
	JOINT LowerBack
	{
		OFFSET 0.000000 0.000000 0.000000
		CHANNELS 3 Zrotation Yrotation Xrotation
		JOINT Spine
		{
			OFFSET 0.028270 2.035590 -0.193380
			CHANNELS 3 Zrotation Yrotation Xrotation
			JOINT Spine1
			{
				OFFSET 0.056720 2.048850 -0.042750
				CHANNELS 3 Zrotation Yrotation Xrotation
				JOINT Neck
				{
					OFFSET 0.000000 0.000000 0.000000
					CHANNELS 3 Zrotation Yrotation Xrotation
					JOINT Neck1
					{
						OFFSET -0.054170 1.746240 0.172020
						CHANNELS 3 Zrotation Yrotation Xrotation
						JOINT Head
						{
							OFFSET 0.104070 1.761360 -0.123970
							CHANNELS 3 Zrotation Yrotation Xrotation
							End Site
							{
								OFFSET 0.000000 0.000000 0.000000
							}
						}
					}
				}
				JOINT LeftShoulder
				{
					OFFSET 0.000000 0.000000 0.000000
					CHANNELS 3 Zrotation Yrotation Xrotation
					JOINT LeftArm
					{
						OFFSET 3.362410 1.200890 -0.311210
						CHANNELS 3 Zrotation Yrotation Xrotation
						JOINT LeftForeArm
						{
							OFFSET 4.983000 -0.000000 -0.000000
							CHANNELS 3 Zrotation Yrotation Xrotation
							JOINT LeftHand
							{
								OFFSET 3.483560 -0.000000 -0.000000
								CHANNELS 3 Zrotation Yrotation Xrotation
								JOINT LeftFingerBase
								{
									OFFSET 0.000000 0.000000 0.000000
									CHANNELS 3 Zrotation Yrotation Xrotation
									JOINT LeftHandIndex1
									{
										OFFSET 0.715260 -0.000000 -0.000000
										CHANNELS 3 Zrotation Yrotation Xrotation
										End Site
										{
											OFFSET 0.000000 0.000000 0.000000
										}
									}
								}
								JOINT LThumb
								{
									OFFSET 0.000000 0.000000 0.000000
									CHANNELS 3 Zrotation Yrotation Xrotation
									End Site
									{
										OFFSET 0.000000 0.000000 0.000000
									}
								}
							}
						}
					}
				}
				JOINT RightShoulder
				{
					OFFSET 0.000000 0.000000 0.000000
					CHANNELS 3 Zrotation Yrotation Xrotation
					JOINT RightArm
					{
						OFFSET -3.136600 1.374050 -0.404650
						CHANNELS 3 Zrotation Yrotation Xrotation
						JOINT RightForeArm
						{
							OFFSET -5.241900 -0.000000 -0.000000
							CHANNELS 3 Zrotation Yrotation Xrotation
							JOINT RightHand
							{
								OFFSET -3.444170 -0.000000 -0.000000
								CHANNELS 3 Zrotation Yrotation Xrotation
								JOINT RightFingerBase
								{
									OFFSET 0.000000 0.000000 0.000000
									CHANNELS 3 Zrotation Yrotation Xrotation
									JOINT RightHandIndex1
									{
										OFFSET -0.622530 -0.000000 -0.000000
										CHANNELS 3 Zrotation Yrotation Xrotation
										End Site
										{
											OFFSET 0.000000 0.000000 0.000000
										}
									}
								}
								JOINT RThumb
								{
									OFFSET 0.000000 0.000000 0.000000
									CHANNELS 3 Zrotation Yrotation Xrotation
									End Site
									{
										OFFSET 0.000000 0.000000 0.000000
									}
								}
							}
						}
					}
				}
			}
		}
	}
}
}
MOTION
Frames: 9
Frame Time: 0.008333
3.332397 16.693225 -0.510397 10.992152 64.788225 14.943389 -8.807978 1.539394 -3.123892 -2.270947 2.005941 -3.858034 -4.886434 1.867015 -1.006907 6.654085 -2.687359 -6.966042 -1.971414 -0.167119 0.200715 0.000000 0.000000 0.000000 -10.527019 19.320430 2.877334 -74.037201 30.977437 0.390421 -3.931747 -9.451153 -0.000243 1.888007 4.541999 0.078339 -0.044814 -0.122563 -0.000000 0.000000 0.000000 0.000000 0.000000 0.000000 0.000000 4.845510 4.638589 -1.824774 45.373618 47.694251 11.303335 0.215864 77.053435 -0.047858 -3.583659 9.133160 -0.299376 -0.070439 -0.601780 -0.000000 0.000000 0.000000 0.000000 0.000000 0.000000 0.000000 
3.461550 16.641317 -0.488693 11.896088 64.204222 15.694468 -9.251708 1.409842 -2.960505 -2.371689 1.914592 -3.860733 -4.943634 1.782466 -1.110299 6.858708 -2.534497 -6.934729 -2.058597 -0.173705 0.201057 0.000000 0.000000 0.000000 -10.522003 18.734556 2.925244 -73.818399 30.036477 2.072691 -3.871942 -10.633594 -0.000034 1.681244 4.164863 0.063947 -0.038467 -0.118381 -0.000000 0.000000 0.000000 0.000000 0.000000 0.000000 0.000000 5.380971 4.925455 -1.613011 47.192599 46.886476 12.733464 0.250988 76.559999 -0.045593 -3.587107 9.223574 -0.303136 -0.059025 -0.597021 -0.000000 0.000000 0.000000 0.000000 0.000000 0.000000 0.000000 
3.584009 16.588351 -0.467483 12.755241 63.624618 16.403472 -9.684986 1.273557 -2.746424 -2.469741 1.816949 -3.856421 -5.002441 1.691620 -1.232668 7.046082 -2.379629 -6.900446 -2.150115 -0.180538 0.200807 0.000000 0.000000 0.000000 -10.557006 18.084967 2.979350 -73.466825 29.008847 3.941355 -3.807724 -11.835426 0.000113 1.512458 3.883693 0.053555 -0.032349 -0.113639 -0.000000 0.000000 0.000000 0.000000 0.000000 0.000000 0.000000 5.917497 5.213043 -1.402496 49.024995 46.018200 14.128656 0.285934 75.926884 -0.043525 -3.626068 9.315168 -0.310098 -0.047038 -0.591585 -0.000000 0.000000 0.000000 0.000000 0.000000 0.000000 0.000000 
3.700210 16.535347 -0.447266 13.546182 63.045424 17.041422 -10.093151 1.135193 -2.479573 -2.562355 1.716253 -3.843732 -5.062881 1.597530 -1.369851 7.214488 -2.222419 -6.865314 -2.245953 -0.187567 0.199278 0.000000 0.000000 0.000000 -10.628944 17.390960 3.039417 -72.970278 27.865734 5.973995 -3.741417 -13.009942 0.000220 1.386489 3.694846 0.046563 -0.026714 -0.108177 -0.000000 0.000000 0.000000 0.000000 0.000000 0.000000 0.000000 6.454178 5.499968 -1.196716 50.859141 45.087844 15.481363 0.321331 75.137955 -0.041729 -3.707458 9.408386 -0.320969 -0.034602 -0.585330 -0.000000 0.000000 0.000000 0.000000 0.000000 0.000000 0.000000 
3.810893 16.483482 -0.428445 14.251009 62.463859 17.586627 -10.462796 1.000004 -2.162393 -2.647021 1.616282 -3.823211 -5.125197 1.503615 -1.521257 7.361642 -2.057606 -6.827213 -2.346023 -0.194804 0.197093 0.000000 0.000000 0.000000 -10.738586 16.652524 3.105398 -72.327578 26.601334 8.097945 -3.678337 -14.118098 0.000290 1.301690 3.588216 0.042275 -0.021911 -0.101901 0.000000 0.000000 0.000000 0.000000 0.000000 0.000000 0.000000 6.987428 5.788425 -0.997671 52.688018 44.080478 16.779565 0.358236 74.178575 -0.040222 -3.831891 9.502804 -0.335750 -0.021931 -0.578077 -0.000000 0.000000 0.000000 0.000000 0.000000 0.000000 0.000000 
3.916998 16.433995 -0.411160 14.866024 61.878427 18.034491 -10.788793 0.870845 -1.802336 -2.722691 1.518972 -3.793728 -5.188160 1.411600 -1.675270 7.489870 -1.891954 -6.793729 -2.449735 -0.202083 0.192140 0.000000 0.000000 0.000000 -10.865851 15.908621 3.177603 -71.546106 25.164337 10.278029 -3.622930 -15.089845 0.000322 1.256713 3.548235 0.040190 -0.018287 -0.094678 0.000000 0.000000 0.000000 0.000000 0.000000 0.000000 0.000000 7.519383 6.068447 -0.809554 54.500384 43.002899 18.016581 0.397680 73.027750 -0.039024 -4.000590 9.600194 -0.354748 -0.009251 -0.569660 -0.000000 0.000000 0.000000 0.000000 0.000000 0.000000 0.000000 
4.019625 16.388189 -0.395628 15.381111 61.290230 18.375187 -11.061678 0.751498 -1.408665 -2.787435 1.426941 -3.755949 -5.251213 1.323808 -1.826018 7.599473 -1.726783 -6.767077 -2.556423 -0.209322 0.183985 0.000000 0.000000 0.000000 -11.002174 15.172374 3.255544 -70.644018 23.538066 12.433828 -3.581594 -15.878581 0.000295 1.245295 3.555712 0.039812 -0.016206 -0.086500 0.000000 0.000000 0.000000 0.000000 0.000000 0.000000 0.000000 8.047545 6.334307 -0.634513 56.289188 41.848851 19.177415 0.440720 71.667747 -0.038086 -4.207265 9.699081 -0.377464 0.003131 -0.559852 -0.000000 0.000000 0.000000 0.000000 0.000000 0.000000 0.000000 
4.119935 16.347373 -0.381967 15.784102 60.702422 18.599905 -11.269124 0.646042 -0.992614 -2.838635 1.343058 -3.712047 -5.313798 1.242801 -1.972081 7.688150 -1.557673 -6.745013 -2.664746 -0.216459 0.173623 0.000000 0.000000 0.000000 -11.143771 14.440195 3.338443 -69.646812 21.731395 14.466625 -3.560781 -16.453514 0.000187 1.263541 3.587038 0.040640 -0.015963 -0.077475 0.000000 0.000000 0.000000 0.000000 0.000000 0.000000 0.000000 8.561401 6.584879 -0.474168 58.053942 40.599624 20.235311 0.488031 70.084791 -0.037318 -4.439820 9.793916 -0.402600 0.014820 -0.548403 -0.000000 0.000000 0.000000 0.000000 0.000000 0.000000 0.000000 
4.218964 16.312694 -0.369902 16.086362 60.121074 18.724412 -11.413581 0.554531 -0.566967 -2.876586 1.267379 -3.661836 -5.375014 1.168643 -2.101674 7.760782 -1.396020 -6.735510 -2.773570 -0.223304 0.159079 0.000000 0.000000 0.000000 -11.271071 13.744396 3.423958 -68.580688 19.713779 16.324182 -3.564394 -16.770422 -0.000017 1.314374 3.621057 0.042677 -0.017736 -0.067657 0.000000 0.000000 0.000000 0.000000 0.000000 0.000000 0.000000 9.063466 6.803268 -0.330278 59.786939 39.266353 21.170730 0.540221 68.262035 -0.036634 -4.689822 9.879721 -0.429259 0.025558 -0.535087 -0.000000 0.000000 0.000000 0.000000 0.000000 0.000000 0.000000 
